<!-- Generated by IcoMoon.io -->
<svg version="1.1" xmlns="http://www.w3.org/2000/svg" width="28" height="28" viewBox="0 0 28 28">
<title>github</title>
<path fill="#292c30" d="M14 0.346c-7.731 0-14 6.268-14 14 0 6.186 4.011 11.433 9.574 13.285 0.7 0.13 0.957-0.304 0.957-0.674 0-0.334-0.013-1.437-0.019-2.607-3.895 0.847-4.717-1.652-4.717-1.652-0.637-1.618-1.554-2.048-1.554-2.048-1.27-0.869 0.096-0.851 0.096-0.851 1.405 0.099 2.146 1.443 2.146 1.443 1.249 2.14 3.275 1.521 4.074 1.164 0.125-0.905 0.488-1.522 0.889-1.872-3.11-0.354-6.379-1.554-6.379-6.919 0-1.528 0.547-2.777 1.443-3.758-0.145-0.353-0.625-1.777 0.135-3.705 0 0 1.176-0.376 3.851 1.435 1.117-0.31 2.314-0.466 3.504-0.471 1.19 0.005 2.388 0.161 3.507 0.471 2.672-1.811 3.846-1.435 3.846-1.435 0.762 1.929 0.283 3.352 0.138 3.705 0.897 0.98 1.441 2.229 1.441 3.758 0 5.377-3.275 6.561-6.393 6.908 0.502 0.434 0.949 1.286 0.949 2.593 0 1.873-0.016 3.381-0.016 3.842 0 0.373 0.252 0.809 0.962 0.672 5.56-1.853 9.566-7.099 9.566-13.283 0-7.732-6.268-14-14-14z"></path>
</svg>
