<!-- Generated by IcoMoon.io -->
<svg version="1.1" xmlns="http://www.w3.org/2000/svg" width="28" height="28" viewBox="0 0 28 28">
<title>instagram</title>
<path fill="#292c30" d="M14.008 2.522c3.741 0 4.184 0.016 5.656 0.082 1.367 0.060 2.106 0.29 2.598 0.481 0.651 0.252 1.121 0.558 1.608 1.045 0.492 0.492 0.793 0.957 1.050 1.608 0.191 0.492 0.421 1.236 0.481 2.598 0.066 1.477 0.082 1.92 0.082 5.656s-0.016 4.184-0.082 5.656c-0.060 1.367-0.29 2.106-0.481 2.598-0.252 0.651-0.558 1.121-1.045 1.608-0.492 0.492-0.957 0.793-1.608 1.050-0.492 0.191-1.236 0.421-2.598 0.481-1.477 0.066-1.92 0.082-5.656 0.082s-4.184-0.016-5.656-0.082c-1.367-0.060-2.106-0.29-2.598-0.481-0.651-0.252-1.121-0.558-1.608-1.045-0.492-0.492-0.793-0.957-1.050-1.608-0.191-0.492-0.421-1.236-0.481-2.598-0.066-1.477-0.082-1.92-0.082-5.656s0.016-4.184 0.082-5.656c0.060-1.367 0.29-2.106 0.481-2.598 0.252-0.651 0.558-1.121 1.045-1.608 0.492-0.492 0.957-0.793 1.608-1.050 0.492-0.191 1.236-0.421 2.598-0.481 1.471-0.066 1.914-0.082 5.656-0.082zM14.008 0c-3.802 0-4.277 0.016-5.771 0.082-1.488 0.066-2.511 0.306-3.397 0.651-0.924 0.361-1.706 0.837-2.483 1.619-0.782 0.777-1.258 1.559-1.619 2.478-0.344 0.892-0.585 1.909-0.651 3.397-0.066 1.499-0.082 1.975-0.082 5.776s0.016 4.277 0.082 5.771c0.066 1.488 0.306 2.511 0.651 3.397 0.361 0.924 0.837 1.706 1.619 2.483 0.777 0.777 1.559 1.258 2.478 1.614 0.892 0.344 1.909 0.585 3.397 0.651 1.493 0.066 1.969 0.082 5.771 0.082s4.277-0.016 5.771-0.082c1.488-0.066 2.511-0.306 3.397-0.651 0.919-0.355 1.701-0.837 2.478-1.614s1.258-1.559 1.614-2.478c0.344-0.892 0.585-1.909 0.651-3.397 0.066-1.493 0.082-1.969 0.082-5.771s-0.016-4.277-0.082-5.771c-0.066-1.488-0.306-2.511-0.651-3.397-0.344-0.93-0.82-1.712-1.603-2.489-0.777-0.777-1.559-1.258-2.478-1.614-0.892-0.344-1.909-0.585-3.397-0.651-1.499-0.071-1.975-0.088-5.776-0.088v0z"></path>
<path fill="#292c30" d="M14.008 6.811c-3.971 0-7.193 3.222-7.193 7.193s3.222 7.193 7.193 7.193 7.193-3.222 7.193-7.193c0-3.971-3.222-7.193-7.193-7.193zM14.008 18.669c-2.576 0-4.666-2.090-4.666-4.666s2.090-4.666 4.666-4.666c2.576 0 4.666 2.089 4.666 4.666s-2.089 4.666-4.666 4.666z"></path>
<path fill="#292c30" d="M23.165 6.526c0 0.927-0.752 1.679-1.679 1.679s-1.679-0.752-1.679-1.679c0-0.927 0.752-1.679 1.679-1.679s1.679 0.752 1.679 1.679z"></path>
</svg>
