<!-- Generated by IcoMoon.io -->
<svg version="1.1" xmlns="http://www.w3.org/2000/svg" width="28" height="28" viewBox="0 0 28 28">
<title>linkedin</title>
<path fill="#292c30" d="M10.5 10.5h4.843v2.482h0.069c0.674-1.208 2.323-2.482 4.781-2.482 5.112 0 6.057 3.182 6.057 7.321v8.429h-5.048v-7.472c0-1.782-0.036-4.075-2.626-4.075-2.629 0-3.030 1.941-3.030 3.945v7.602h-5.046v-15.75z"></path>
<path fill="#292c30" d="M1.75 10.5h5.25v15.75h-5.25v-15.75z"></path>
<path fill="#292c30" d="M7 6.125c0 1.45-1.175 2.625-2.625 2.625s-2.625-1.175-2.625-2.625c0-1.45 1.175-2.625 2.625-2.625s2.625 1.175 2.625 2.625z"></path>
</svg>
