<!-- Generated by IcoMoon.io -->
<svg version="1.1" xmlns="http://www.w3.org/2000/svg" width="28" height="28" viewBox="0 0 28 28">
<title>twitter</title>
<path fill="#292c30" d="M28 6.191c-1.028 0.459-2.138 0.766-3.298 0.902 1.187-0.711 2.095-1.837 2.527-3.177-1.11 0.656-2.341 1.138-3.648 1.395-1.050-1.116-2.543-1.81-4.195-1.81-3.172 0-5.742 2.57-5.742 5.742 0 0.448 0.049 0.886 0.148 1.307-4.774-0.241-9.007-2.527-11.84-6.005-0.492 0.848-0.777 1.838-0.777 2.888 0 1.991 1.012 3.752 2.554 4.78-0.941-0.027-1.827-0.29-2.603-0.716 0 0.022 0 0.049 0 0.071 0 2.784 1.98 5.108 4.61 5.633-0.481 0.131-0.99 0.202-1.515 0.202-0.372 0-0.727-0.038-1.083-0.104 0.733 2.28 2.855 3.943 5.365 3.992-1.969 1.542-4.441 2.461-7.137 2.461-0.465 0-0.919-0.027-1.373-0.082 2.548 1.635 5.567 2.581 8.81 2.581 10.566 0 16.346-8.755 16.346-16.346 0-0.252-0.005-0.498-0.016-0.744 1.121-0.804 2.095-1.816 2.866-2.97z"></path>
</svg>
