<!-- Generated by IcoMoon.io -->
<svg version="1.1" xmlns="http://www.w3.org/2000/svg" width="28" height="28" viewBox="0 0 28 28">
<title>whatsapp</title>
<path fill="#292c30" d="M23.871 4.069c-2.62-2.625-6.103-4.069-9.816-4.069-7.645 0-13.869 6.223-13.869 13.874 0 2.445 0.64 4.834 1.854 6.934l-1.969 7.191 7.355-1.93c2.029 1.105 4.309 1.69 6.628 1.69h0.005c0 0 0 0 0 0 7.645 0 13.874-6.223 13.874-13.874 0-3.708-1.444-7.191-4.063-9.816zM14.060 25.419v0c-2.073 0-4.102-0.558-5.873-1.608l-0.421-0.252-4.364 1.143 1.165-4.255-0.273-0.438c-1.159-1.832-1.766-3.954-1.766-6.136 0-6.36 5.173-11.534 11.539-11.534 3.079 0 5.977 1.203 8.154 3.38 2.177 2.182 3.374 5.075 3.374 8.159-0.005 6.366-5.179 11.539-11.534 11.539zM20.382 16.778c-0.345-0.175-2.051-1.012-2.368-1.127s-0.547-0.175-0.782 0.175c-0.23 0.345-0.897 1.127-1.099 1.362-0.202 0.23-0.405 0.263-0.749 0.088s-1.466-0.541-2.789-1.723c-1.028-0.919-1.728-2.056-1.93-2.401s-0.022-0.536 0.153-0.705c0.159-0.153 0.345-0.405 0.52-0.607s0.23-0.345 0.345-0.58c0.115-0.23 0.060-0.432-0.027-0.607s-0.782-1.881-1.066-2.576c-0.279-0.678-0.569-0.585-0.782-0.596-0.202-0.011-0.432-0.011-0.662-0.011s-0.607 0.087-0.924 0.432c-0.317 0.345-1.214 1.187-1.214 2.893s1.241 3.352 1.416 3.588c0.175 0.23 2.445 3.735 5.923 5.234 0.826 0.355 1.471 0.569 1.974 0.733 0.831 0.262 1.586 0.224 2.182 0.137 0.667-0.098 2.051-0.837 2.341-1.646s0.29-1.504 0.202-1.646c-0.082-0.153-0.312-0.241-0.662-0.416z"></path>
</svg>
